<svg id="micoff" xmlns="http://www.w3.org/2000/svg" width="24" height="24" viewBox="0 0 24 24">
  <defs>
    <style>
      .cls-1, .cls-2 {
        fill: none;
      }

      .cls-1 {
        stroke: #1b1c1e;
        stroke-width: 1.5px;
      }
    </style>
  </defs>
  <g id="mic-off" transform="translate(6.6 3)">
    <path id="Tracciato_1092" data-name="Tracciato 1092" class="cls-1" d="M7.8,20.112H15m-3.6-3.6v3.6M6,3,16.8,19.211M6,9.3v1.8a5.4,5.4,0,0,0,8.386,4.5M16.8,9.3v1.8a5.4,5.4,0,0,1-.307,1.8" transform="translate(-6 -2.112)"/>
    <path id="Tracciato_1093" data-name="Tracciato 1093" class="cls-1" d="M9,6.951V11a2.7,2.7,0,0,0,4.193,2.25M9.688,2.9A2.7,2.7,0,0,1,14.4,4.7v5.4" transform="translate(-6.306 -2)"/>
  </g>
  <rect id="Rettangolo_1320" data-name="Rettangolo 1320" class="cls-2" width="24" height="24"/>
</svg>
