<svg id="users_bold" xmlns="http://www.w3.org/2000/svg" width="24" height="24" viewBox="0 0 24 24">
  <defs>
    <style>
      .cls-1, .cls-2 {
        fill: none;
      }

      .cls-2 {
        stroke: #1b1c1e;
        stroke-linejoin: round;
      }
    </style>
  </defs>
  <rect id="Rettangolo_1386" data-name="Rettangolo 1386" class="cls-1" width="24" height="24"/>
  <g id="Raggruppa_2558" data-name="Raggruppa 2558" transform="translate(2.003 5)">
    <path id="Tracciato_1023" data-name="Tracciato 1023" class="cls-2" d="M10.411,15.7A4.234,4.234,0,1,0,6.176,11.47,4.234,4.234,0,0,0,10.411,15.7ZM3,21.2a7.68,7.68,0,0,1,4.259-6.9m6.31,0a7.676,7.676,0,0,1,4.254,6.9M16.308,10.259h0A8.079,8.079,0,0,1,22.436,18" transform="translate(-3 -2.997)"/>
    <path id="Tracciato_1024" data-name="Tracciato 1024" class="cls-2" d="M14.609,10.949A4,4,0,1,0,10,7a2.264,2.264,0,0,0,.01.26" transform="translate(-3.001 -2.997)"/>
  </g>
</svg>
