<svg id="users2" xmlns="http://www.w3.org/2000/svg" width="24" height="24" viewBox="0 0 24 24">
  <defs>
    <style>
      .cls-1, .cls-2 {
        fill: none;
      }

      .cls-1 {
        stroke: #1b1c1e;
        stroke-linejoin: round;
        stroke-width: 1.5px;
      }
    </style>
  </defs>
  <g id="Raggruppa_2522" data-name="Raggruppa 2522" transform="translate(4.001 4)">
    <path id="Tracciato_1023" data-name="Tracciato 1023" class="cls-1" d="M9.587,14.764A3.764,3.764,0,1,0,5.823,11a3.764,3.764,0,0,0,3.764,3.764ZM3,19.468a6.562,6.562,0,0,1,3.782-5.954m5.609,0a6.563,6.563,0,0,1,3.783,5.954M14.829,9.924A6.51,6.51,0,0,1,19,15.754" transform="translate(-3 -3.468)"/>
    <path id="Tracciato_1024" data-name="Tracciato 1024" class="cls-1" d="M14.1,10.065A3.555,3.555,0,1,0,10,6.555a2.012,2.012,0,0,0,.009.231" transform="translate(-3.779 -2.997)"/>
  </g>
  <rect id="Rettangolo_1296" data-name="Rettangolo 1296" class="cls-2" width="24" height="24"/>
</svg>
