<svg xmlns="http://www.w3.org/2000/svg" width="25.055" height="24" viewBox="0 0 25.055 24">
  <defs>
    <style>
      .cls-1, .cls-2, .cls-3 {
        fill: none;
      }

      .cls-1, .cls-2 {
        stroke: #1b1c1e;
        stroke-width: 1.5px;
      }

      .cls-2 {
        stroke-linecap: round;
      }
    </style>
  </defs>
  <g id="udiovideo" transform="translate(1.055)">
    <g id="video" transform="translate(12.508 4)">
      <path id="Tracciato_1029" data-name="Tracciato 1029" class="cls-1" d="M3,5H9.133v6.6H3Z" transform="translate(-3 -5)"/>
      <path id="Tracciato_1030" data-name="Tracciato 1030" class="cls-2" d="M16,9.415,18.359,8v3.774L16,10.359" transform="translate(-9.867 -6.585)"/>
    </g>
    <path id="Tracciato_1247" data-name="Tracciato 1247" class="cls-1" d="M3,6.963A15.891,15.891,0,0,1,11.692,4a15.891,15.891,0,0,1,8.692,2.963V11.9l-4.829-.988V7.951a9.811,9.811,0,0,0-3.863-.988,9.811,9.811,0,0,0-3.863.988v2.963L3,11.9Z" transform="matrix(-0.629, -0.777, 0.777, -0.629, 9.72, 27.332)"/>
    <rect id="Rettangolo_1324" data-name="Rettangolo 1324" class="cls-3" width="24" height="24"/>
  </g>
</svg>
