<svg id="settings" xmlns="http://www.w3.org/2000/svg" width="24" height="24" viewBox="0 0 24 24">
  <defs>
    <style>
      .cls-1, .cls-2, .cls-3 {
        fill: none;
      }

      .cls-1, .cls-2 {
        stroke: #1b1c1e;
        stroke-linecap: round;
        stroke-width: 1.5px;
      }

      .cls-1 {
        stroke-miterlimit: 10;
      }
    </style>
  </defs>
  <g id="Raggruppa_2564" data-name="Raggruppa 2564" transform="translate(2549.002 -658)">
    <path id="Tracciato_1025" data-name="Tracciato 1025" class="cls-1" d="M13.309,3l.186,1a2,2,0,0,0,3.1,1.29l.842-.58L19.29,6.562l-.58.842A2,2,0,0,0,20,10.5l1,.186v2.618L20,13.5a2,2,0,0,0-1.285,3.1l.58.842L17.438,19.29l-.842-.58A2,2,0,0,0,13.5,20l-.186,1H10.691L10.5,20a2,2,0,0,0-3.1-1.29l-.842.58L4.71,17.438l.58-.842A2,2,0,0,0,4,13.5L3,13.31V10.691L4,10.5A2,2,0,0,0,5.29,7.4l-.58-.842L6.562,4.71l.842.58A2,2,0,0,0,10.5,4l.186-1Z" transform="translate(-2549.005 658)"/>
    <path id="Tracciato_1156" data-name="Tracciato 1156" class="cls-2" d="M3.6,0A3.805,3.805,0,0,1,6.715,1.785,3.183,3.183,0,0,1,7.207,3.6,3.6,3.6,0,1,1,3.6,0Z" transform="translate(-2540.609 666.396)"/>
  </g>
  <rect id="Rettangolo_1413" data-name="Rettangolo 1413" class="cls-3" width="24" height="24"/>
</svg>
