<!--
  - Copyright 2023 Kaleyra @ https://www.kaleyra.com
  -
  - Licensed under the Apache License, Version 2.0 (the "License");
  - you may not use this file except in compliance with the License.
  - You may obtain a copy of the License at
  -
  -     http://www.apache.org/licenses/LICENSE-2.0
  -
  - Unless required by applicable law or agreed to in writing, software
  - distributed under the License is distributed on an "AS IS" BASIS,
  - WITHOUT WARRANTIES OR CONDITIONS OF ANY KIND, either express or implied.
  - See the License for the specific language governing permissions and
  - limitations under the License.
  -->

<svg id="users_1" xmlns="http://www.w3.org/2000/svg" width="24" height="25.226" viewBox="0 0 24 25.226">
  <defs>
    <style>
      .cls-1, .cls-2 {
        fill: none;
      }

      .cls-2 {
        stroke: #1b1c1e;
        stroke-linecap: round;
        stroke-linejoin: round;
      }
    </style>
  </defs>
  <rect id="Rettangolo_1478" data-name="Rettangolo 1478" class="cls-1" width="24" height="24"/>
  <g id="Raggruppa_2587" data-name="Raggruppa 2587" transform="translate(2.003 6)">
    <path id="Tracciato_1023" data-name="Tracciato 1023" class="cls-2" d="M10.624,15.949a4.356,4.356,0,1,0-4.356-4.356,4.356,4.356,0,0,0,4.356,4.356ZM3,21.6a7.9,7.9,0,0,1,4.381-7.1m6.492,0a7.9,7.9,0,0,1,4.376,7.1M16.691,10.347h0A8.312,8.312,0,0,1,23,18.308" transform="translate(-3 -2.875)"/>
    <path id="Tracciato_1024" data-name="Tracciato 1024" class="cls-2" d="M14.742,11.178A4.115,4.115,0,1,0,10,7.115a2.329,2.329,0,0,0,.01.267" transform="translate(-2.799 -2.997)"/>
  </g>
</svg>
