<!--
  - Copyright 2023 Kaleyra @ https://www.kaleyra.com
  -
  - Licensed under the Apache License, Version 2.0 (the "License");
  - you may not use this file except in compliance with the License.
  - You may obtain a copy of the License at
  -
  -     http://www.apache.org/licenses/LICENSE-2.0
  -
  - Unless required by applicable law or agreed to in writing, software
  - distributed under the License is distributed on an "AS IS" BASIS,
  - WITHOUT WARRANTIES OR CONDITIONS OF ANY KIND, either express or implied.
  - See the License for the specific language governing permissions and
  - limitations under the License.
  -->

<svg id="avatars" xmlns="http://www.w3.org/2000/svg" width="24" height="24.751" viewBox="0 0 24 24.751">
  <defs>
    <style>
      .cls-1, .cls-2 {
        fill: none;
      }

      .cls-2 {
        stroke: #1b1c1e;
        stroke-linecap: round;
        stroke-linejoin: round;
        stroke-width: 1.5px;
      }
    </style>
  </defs>
  <rect id="Rettangolo_1387" data-name="Rettangolo 1387" class="cls-1" width="24" height="24"/>
  <g id="Raggruppa_2559" data-name="Raggruppa 2559" transform="translate(3.002 6)">
    <path id="Tracciato_1023" data-name="Tracciato 1023" class="cls-2" d="M10.411,15.7A4.234,4.234,0,1,0,6.176,11.47,4.234,4.234,0,0,0,10.411,15.7ZM3,21a7.383,7.383,0,0,1,4.255-6.7m6.31,0A7.383,7.383,0,0,1,17.821,21M16.308,10.259A7.324,7.324,0,0,1,21,16.818" transform="translate(-3 -2.997)"/>
    <path id="Tracciato_1024" data-name="Tracciato 1024" class="cls-2" d="M14.609,10.949A4,4,0,1,0,10,7a2.264,2.264,0,0,0,.01.26" transform="translate(-3.001 -2.997)"/>
  </g>
</svg>
