<!--
  - Copyright 2023 Kaleyra @ https://www.kaleyra.com
  -
  - Licensed under the Apache License, Version 2.0 (the "License");
  - you may not use this file except in compliance with the License.
  - You may obtain a copy of the License at
  -
  -     http://www.apache.org/licenses/LICENSE-2.0
  -
  - Unless required by applicable law or agreed to in writing, software
  - distributed under the License is distributed on an "AS IS" BASIS,
  - WITHOUT WARRANTIES OR CONDITIONS OF ANY KIND, either express or implied.
  - See the License for the specific language governing permissions and
  - limitations under the License.
  -->

<svg xmlns="http://www.w3.org/2000/svg" width="19.5" height="19.5" viewBox="0 0 19.5 19.5">
  <g id="question" transform="translate(0.75 0.75)">
    <path id="Tracciato_1054" data-name="Tracciato 1054" d="M12,21.75A9.75,9.75,0,1,1,21.75,12,9.761,9.761,0,0,1,12,21.75Zm0-18A8.25,8.25,0,1,0,20.25,12,8.259,8.259,0,0,0,12,3.75Z" transform="translate(-3 -3)"/>
    <path id="exclamation" d="M11.792,12.667a.833.833,0,0,0,.833-.833v-5a.833.833,0,1,0-1.667,0v5A.833.833,0,0,0,11.792,12.667Zm0,3.333a1.042,1.042,0,1,0-1.042-1.042A1.042,1.042,0,0,0,11.792,16Z" transform="translate(-2.792 -2)"/>
  </g>
</svg>
