<!--
  - Copyright 2023 Kaleyra @ https://www.kaleyra.com
  -
  - Licensed under the Apache License, Version 2.0 (the "License");
  - you may not use this file except in compliance with the License.
  - You may obtain a copy of the License at
  -
  -     http://www.apache.org/licenses/LICENSE-2.0
  -
  - Unless required by applicable law or agreed to in writing, software
  - distributed under the License is distributed on an "AS IS" BASIS,
  - WITHOUT WARRANTIES OR CONDITIONS OF ANY KIND, either express or implied.
  - See the License for the specific language governing permissions and
  - limitations under the License.
  -->

<svg xmlns="http://www.w3.org/2000/svg" width="19.5" height="19.5" viewBox="0 0 19.5 19.5">
  <defs>
    <style>
      .cls-1 {
        fill-rule: evenodd;
      }
    </style>
  </defs>
  <path id="Union" class="cls-1" d="M11.9.438a9.75,9.75,0,1,0,4.992,2.668A9.75,9.75,0,0,0,11.9.438ZM6.843,2.378a8.25,8.25,0,1,1-3.7,3.039A8.25,8.25,0,0,1,6.843,2.378Zm-.35,4.115a.75.75,0,0,1,1.061,0L10,8.94l2.446-2.446a.75.75,0,0,1,1.061,1.061L11.061,10l2.446,2.446a.75.75,0,0,1-1.061,1.061L10,11.061,7.554,13.507a.75.75,0,1,1-1.061-1.061L8.939,10,6.493,7.554A.75.75,0,0,1,6.493,6.493Z" transform="translate(-0.25 -0.25)"/>
</svg>
